<svg width="210" height="74" viewBox="0 0 210 74" fill="none" xmlns="http://www.w3.org/2000/svg">
<path fill-rule="evenodd" clip-rule="evenodd" d="M75 0C66.7157 0 60 6.71573 60 15C60 23.2843 66.7157 30 75 30C83.2843 30 90 23.2843 90 15C90 6.71573 83.2843 0 75 0ZM71.702 7.04833C72.5554 7.0095 72.8281 7 75.0007 7H74.9983C77.1716 7 77.4433 7.0095 78.2966 7.04833C79.1483 7.08733 79.73 7.22217 80.24 7.42C80.7666 7.62417 81.2116 7.89751 81.6567 8.34251C82.1017 8.78719 82.375 9.23352 82.58 9.7597C82.7767 10.2684 82.9117 10.8497 82.9517 11.7014C82.99 12.5547 83 12.8274 83 15.0001C83 17.1728 82.99 17.4448 82.9517 18.2981C82.9117 19.1495 82.7767 19.731 82.58 20.2398C82.375 20.7658 82.1017 21.2121 81.6567 21.6568C81.2121 22.1018 80.7665 22.3758 80.2405 22.5802C79.7315 22.778 79.1495 22.9128 78.2978 22.9518C77.4444 22.9907 77.1726 23.0002 74.9998 23.0002C72.8272 23.0002 72.5547 22.9907 71.7014 22.9518C70.8499 22.9128 70.2684 22.778 69.7594 22.5802C69.2335 22.3758 68.7872 22.1018 68.3427 21.6568C67.8978 21.2121 67.6245 20.7658 67.42 20.2396C67.2223 19.731 67.0875 19.1496 67.0483 18.298C67.0097 17.4446 67 17.1728 67 15.0001C67 12.8274 67.01 12.5546 67.0482 11.7012C67.0865 10.8499 67.2215 10.2684 67.4198 9.75953C67.6248 9.23352 67.8982 8.78719 68.3432 8.34251C68.7879 7.89768 69.2342 7.62434 69.7604 7.42C70.269 7.22217 70.8504 7.08733 71.702 7.04833Z" fill="white"/>
<path fill-rule="evenodd" clip-rule="evenodd" d="M74.2821 8.4417C74.4215 8.44148 74.5714 8.44155 74.7332 8.44162L74.9998 8.4417C77.1358 8.4417 77.389 8.44936 78.2325 8.4877C79.0125 8.52336 79.4359 8.6537 79.7179 8.7632C80.0912 8.9082 80.3574 9.08154 80.6372 9.36154C80.9172 9.64154 81.0905 9.90821 81.2359 10.2815C81.3454 10.5632 81.4759 10.9866 81.5114 11.7666C81.5497 12.6099 81.558 12.8632 81.558 14.9983C81.558 17.1333 81.5497 17.3866 81.5114 18.23C81.4757 19.01 81.3454 19.4333 81.2359 19.715C81.0909 20.0883 80.9172 20.3542 80.6372 20.634C80.3572 20.914 80.0914 21.0873 79.7179 21.2323C79.4362 21.3423 79.0125 21.4723 78.2325 21.508C77.3892 21.5463 77.1358 21.5547 74.9998 21.5547C72.8636 21.5547 72.6104 21.5463 71.7671 21.508C70.9871 21.472 70.5638 21.3417 70.2816 21.2322C69.9083 21.0872 69.6416 20.9138 69.3616 20.6338C69.0816 20.3538 68.9082 20.0878 68.7629 19.7143C68.6534 19.4326 68.5229 19.0093 68.4874 18.2293C68.4491 17.386 68.4414 17.1326 68.4414 14.9963C68.4414 12.8599 68.4491 12.6079 68.4874 11.7646C68.5231 10.9846 68.6534 10.5612 68.7629 10.2792C68.9079 9.90588 69.0816 9.63921 69.3616 9.35921C69.6416 9.0792 69.9083 8.90587 70.2816 8.76053C70.5636 8.65053 70.9871 8.52053 71.7671 8.4847C72.5051 8.45136 72.7911 8.44136 74.2821 8.4397V8.4417ZM79.2706 9.77011C78.7406 9.77011 78.3105 10.1996 78.3105 10.7298C78.3105 11.2598 78.7406 11.6898 79.2706 11.6898C79.8006 11.6898 80.2306 11.2598 80.2306 10.7298C80.2306 10.1998 79.8006 9.76978 79.2706 9.76978V9.77011ZM70.8906 15.0001C70.8906 12.7313 72.7301 10.8918 74.9988 10.8917C77.2677 10.8917 79.1067 12.7312 79.1067 15.0001C79.1067 17.269 77.2679 19.1076 74.999 19.1076C72.7301 19.1076 70.8906 17.269 70.8906 15.0001Z" fill="white"/>
<path d="M75.0007 12.3335C76.4734 12.3335 77.6674 13.5273 77.6674 15.0002C77.6674 16.4729 76.4734 17.6669 75.0007 17.6669C73.5278 17.6669 72.334 16.4729 72.334 15.0002C72.334 13.5273 73.5278 12.3335 75.0007 12.3335Z" fill="white"/>
<path fill-rule="evenodd" clip-rule="evenodd" d="M120 15C120 23.2843 126.716 30 135 30C143.284 30 150 23.2843 150 15C150 6.71573 143.284 0 135 0C126.716 0 120 6.71573 120 15ZM132.25 21.8749L132.506 18.0513L132.505 18.0512L139.461 11.7743C139.766 11.5034 139.394 11.3713 138.989 11.617L130.405 17.0326L126.697 15.8753C125.896 15.6302 125.891 15.0799 126.877 14.6843L141.326 9.11297C141.986 8.81337 142.622 9.27147 142.371 10.2815L139.91 21.8769C139.738 22.7009 139.24 22.8979 138.55 22.5173L134.802 19.748L133 21.4999C132.995 21.5055 132.989 21.511 132.983 21.5164C132.782 21.7126 132.615 21.8749 132.25 21.8749Z" fill="white"/>
<path fill-rule="evenodd" clip-rule="evenodd" d="M195 0C186.716 0 180 6.71573 180 15C180 23.2843 186.716 30 195 30C203.284 30 210 23.2843 210 15C210 6.71573 203.284 0 195 0ZM187.201 12.4236H190.601V22.6372H187.201V12.4236ZM190.824 9.26419C190.802 8.26275 190.086 7.5 188.923 7.5C187.76 7.5 187 8.26275 187 9.26419C187 10.2449 187.738 11.0296 188.879 11.0296H188.901C190.086 11.0296 190.824 10.2449 190.824 9.26419ZM198.944 12.1838C201.181 12.1838 202.858 13.6439 202.858 16.7811L202.858 22.6372H199.459V17.173C199.459 15.8005 198.967 14.8639 197.736 14.8639C196.797 14.8639 196.238 15.4953 195.992 16.1051C195.902 16.3237 195.88 16.6282 195.88 16.9334V22.6375H192.48C192.48 22.6375 192.525 13.3823 192.48 12.4239H195.88V13.8706C196.331 13.1752 197.139 12.1838 198.944 12.1838Z" fill="white"/>
<path fill-rule="evenodd" clip-rule="evenodd" d="M15 0C6.71573 0 0 6.71573 0 15C0 23.2843 6.71573 30 15 30C23.2843 30 30 23.2843 30 15C30 6.71573 23.2843 0 15 0ZM16.5635 15.6589V23.8197H13.1869V15.6592H11.5V12.8469H13.1869V11.1585C13.1869 8.86425 14.1395 7.5 16.8457 7.5H19.0988V10.3126H17.6905C16.637 10.3126 16.5673 10.7056 16.5673 11.4391L16.5635 12.8466H19.1147L18.8162 15.6589H16.5635Z" fill="white"/>
<path fill-rule="evenodd" clip-rule="evenodd" d="M75 44C66.7157 44 60 50.7157 60 59C60 67.2843 66.7157 74 75 74C83.2843 74 90 67.2843 90 59C90 50.7157 83.2843 44 75 44ZM76.2213 63.7351C76.0734 63.8911 75.7847 63.9226 75.7847 63.9226H74.8284C74.8284 63.9226 72.7186 64.047 70.86 62.1481C68.8332 60.0764 67.0435 55.966 67.0435 55.966C67.0435 55.966 66.9402 55.6963 67.0521 55.5665C67.1781 55.4198 67.5216 55.4106 67.5216 55.4106L69.8075 55.396C69.8075 55.396 70.0227 55.4306 70.1768 55.5419C70.3044 55.6341 70.3756 55.8054 70.3756 55.8054C70.3756 55.8054 70.745 56.7226 71.2341 57.5522C72.1896 59.1723 72.6341 59.5264 72.9581 59.3528C73.4307 59.1 73.2891 57.0629 73.2891 57.0629C73.2891 57.0629 73.2977 56.3239 73.0512 55.9944C72.8602 55.7394 72.5003 55.6648 72.3414 55.6441C72.2123 55.6272 72.4236 55.3338 72.6975 55.2024C73.1091 55.005 73.8353 54.9935 74.6938 55.0019C75.3629 55.0088 75.5554 55.0495 75.8167 55.1118C76.4234 55.2555 76.4044 55.716 76.3636 56.7098C76.3513 57.007 76.3372 57.352 76.3372 57.7504C76.3372 57.8399 76.3345 57.9354 76.3318 58.0336C76.3176 58.5427 76.3013 59.1258 76.6431 59.3428C76.8184 59.4534 77.2465 59.3589 78.3178 57.5737C78.8257 56.7272 79.206 55.7324 79.206 55.7324C79.206 55.7324 79.2898 55.555 79.4189 55.4789C79.5511 55.4014 79.7296 55.4252 79.7296 55.4252L82.1351 55.4106C82.1351 55.4106 82.8582 55.3253 82.9748 55.6464C83.0977 55.9821 82.7048 56.7672 81.722 58.053C80.7896 59.2732 80.3359 59.7224 80.3775 60.1197C80.4079 60.41 80.7029 60.6726 81.2688 61.1879C82.4504 62.2647 82.767 62.8312 82.8431 62.9673C82.8494 62.9786 82.8541 62.9869 82.8574 62.9923C83.3872 63.855 82.2697 63.9226 82.2697 63.9226L80.1326 63.9517C80.1326 63.9517 79.674 64.0408 79.0699 63.6337C78.7534 63.4206 78.4441 63.0726 78.1496 62.7411C77.6998 62.2349 77.2842 61.7672 76.9296 61.8777C76.334 62.0636 76.352 63.3226 76.352 63.3226C76.352 63.3226 76.3567 63.5922 76.2213 63.7351Z" fill="white"/>
<path fill-rule="evenodd" clip-rule="evenodd" d="M15 44C6.71573 44 0 50.7157 0 59C0 67.2843 6.71573 74 15 74C23.2843 74 30 67.2843 30 59C30 50.7157 23.2843 44 15 44ZM21.251 53.8433C21.9395 54.0322 22.4816 54.5889 22.6656 55.2958C23 56.5769 23 59.25 23 59.25C23 59.25 23 61.923 22.6656 63.2042C22.4816 63.9111 21.9395 64.4678 21.251 64.6568C20.0034 65 15 65 15 65C15 65 9.99664 65 8.74891 64.6568C8.06045 64.4678 7.51827 63.9111 7.33427 63.2042C7 61.923 7 59.25 7 59.25C7 59.25 7 56.5769 7.33427 55.2958C7.51827 54.5889 8.06045 54.0322 8.74891 53.8433C9.99664 53.5 15 53.5 15 53.5C15 53.5 20.0034 53.5 21.251 53.8433Z" fill="white"/>
<path d="M13.5 62V57L17.5 59.5001L13.5 62Z" fill="white"/>
</svg>
