<svg width="22" height="280" viewBox="0 0 22 280" fill="none" xmlns="http://www.w3.org/2000/svg">
<path d="M1 7C0.447715 7 0 7.44772 0 8C0 8.55228 0.447715 9 1 9L1 7ZM21.7071 8.70711C22.0976 8.31658 22.0976 7.68342 21.7071 7.29289L15.3431 0.928932C14.9526 0.538408 14.3195 0.538408 13.9289 0.928932C13.5384 1.31946 13.5384 1.95262 13.9289 2.34315L19.5858 8L13.9289 13.6569C13.5384 14.0474 13.5384 14.6805 13.9289 15.0711C14.3195 15.4616 14.9526 15.4616 15.3431 15.0711L21.7071 8.70711ZM1 9L21 9V7L1 7L1 9Z" fill="#1A5CFF"/>
<path d="M1 79C0.447715 79 0 79.4477 0 80C0 80.5523 0.447715 81 1 81L1 79ZM21.7071 80.7071C22.0976 80.3166 22.0976 79.6834 21.7071 79.2929L15.3431 72.9289C14.9526 72.5384 14.3195 72.5384 13.9289 72.9289C13.5384 73.3195 13.5384 73.9526 13.9289 74.3431L19.5858 80L13.9289 85.6569C13.5384 86.0474 13.5384 86.6805 13.9289 87.0711C14.3195 87.4616 14.9526 87.4616 15.3431 87.0711L21.7071 80.7071ZM1 81H21V79H1L1 81Z" fill="#1A5CFF"/>
<path d="M1 127C0.447715 127 0 127.448 0 128C0 128.552 0.447715 129 1 129L1 127ZM21.7071 128.707C22.0976 128.317 22.0976 127.683 21.7071 127.293L15.3431 120.929C14.9526 120.538 14.3195 120.538 13.9289 120.929C13.5384 121.319 13.5384 121.953 13.9289 122.343L19.5858 128L13.9289 133.657C13.5384 134.047 13.5384 134.681 13.9289 135.071C14.3195 135.462 14.9526 135.462 15.3431 135.071L21.7071 128.707ZM1 129H21V127H1L1 129Z" fill="#1A5CFF"/>
<path d="M1 200C0.447715 200 0 200.448 0 201C0 201.552 0.447715 202 1 202L1 200ZM21.7071 201.707C22.0976 201.317 22.0976 200.683 21.7071 200.293L15.3431 193.929C14.9526 193.538 14.3195 193.538 13.9289 193.929C13.5384 194.319 13.5384 194.953 13.9289 195.343L19.5858 201L13.9289 206.657C13.5384 207.047 13.5384 207.681 13.9289 208.071C14.3195 208.462 14.9526 208.462 15.3431 208.071L21.7071 201.707ZM1 202H21V200H1L1 202Z" fill="#1A5CFF"/>
<path d="M1 271C0.447715 271 0 271.448 0 272C0 272.552 0.447715 273 1 273L1 271ZM21.7071 272.707C22.0976 272.317 22.0976 271.683 21.7071 271.293L15.3431 264.929C14.9526 264.538 14.3195 264.538 13.9289 264.929C13.5384 265.319 13.5384 265.953 13.9289 266.343L19.5858 272L13.9289 277.657C13.5384 278.047 13.5384 278.681 13.9289 279.071C14.3195 279.462 14.9526 279.462 15.3431 279.071L21.7071 272.707ZM1 273H21V271H1L1 273Z" fill="#1A5CFF"/>
</svg>
